<?xml version="1.0" encoding="utf-8"?>
<!-- Generator: Adobe Illustrator 25.0.0, SVG Export Plug-In . SVG Version: 6.00 Build 0)  -->
<svg version="1.1" id="Calque_1" xmlns="http://www.w3.org/2000/svg" xmlns:xlink="http://www.w3.org/1999/xlink" x="0px" y="0px"
	 viewBox="0 0 271.3 271.3" style="enable-background:new 0 0 271.3 271.3;" xml:space="preserve">
<style type="text/css">
	.st0{fill:#3E3E3E;}
</style>
<path class="st0" d="M176.7,135.7l86.1-86.1c11.3-11.3,11.3-29.7,0-41c-11.3-11.3-29.7-11.3-41,0l-86.1,86.1L49.5,8.5
	c-11.3-11.3-29.7-11.3-41,0c-11.3,11.3-11.3,29.7,0,41l86.1,86.1L8.5,221.8c-11.3,11.3-11.3,29.7,0,41c5.7,5.7,13.1,8.5,20.5,8.5
	c7.4,0,14.9-2.8,20.5-8.5l86.1-86.1l86.1,86.1c5.7,5.7,13.1,8.5,20.5,8.5c7.4,0,14.9-2.8,20.5-8.5c11.3-11.3,11.3-29.7,0-41
	L176.7,135.7z"/>
</svg>
