<svg height="512pt" viewBox="0 0 512 512" width="512pt" xmlns="http://www.w3.org/2000/svg"><path d="m254 492c0 11.046875-8.953125 20-20 20h-134c-44.113281 0-80-35.886719-80-80v-222c0-11.046875 8.953125-20 20-20s20 8.953125 20 20v222c0 22.054688 17.945312 40 40 40h134c11.046875 0 20 8.953125 20 20zm258-432v60c0 11.046875-8.953125 20-20 20v104c0 11.046875-8.953125 20-20 20s-20-8.953125-20-20v-104h-432c-11.046875 0-20-8.953125-20-20v-60c0-33.085938 26.914062-60 60-60h392c33.085938 0 60 26.914062 60 60zm-472 40h432v-40c0-11.027344-8.972656-20-20-20h-392c-11.027344 0-20 8.972656-20 20zm260 120c11.046875 0 20-8.953125 20-20s-8.953125-20-20-20h-90c-11.046875 0-20 8.953125-20 20s8.953125 20 20 20zm212 161c0 49.625-40.375 90-90 90-16.808594 0-32.550781-4.636719-46.027344-12.6875l-47.832031 47.832031c-3.902344 3.902344-9.023437 5.855469-14.140625 5.855469s-10.238281-1.953125-14.140625-5.855469c-7.8125-7.8125-7.8125-20.476562 0-28.285156l47.152344-47.152344c-9.480469-14.253906-15.011719-31.34375-15.011719-49.707031 0-49.625 40.375-90 90-90s90 40.375 90 90zm-40 0c0-27.570312-22.429688-50-50-50s-50 22.429688-50 50 22.429688 50 50 50 50-22.429688 50-50zm0 0"/></svg>