<?xml version="1.0" encoding="utf-8"?>
<!-- Generator: Adobe Illustrator 25.0.0, SVG Export Plug-In . SVG Version: 6.00 Build 0)  -->
<svg version="1.1" id="Calque_1" xmlns="http://www.w3.org/2000/svg" xmlns:xlink="http://www.w3.org/1999/xlink" x="0px" y="0px"
	 viewBox="0 0 344.5 338" style="enable-background:new 0 0 344.5 338;" xml:space="preserve">
<style type="text/css">
	.st0{fill:#168292;}
</style>
<g>
	<path class="st0" d="M53.1,69.2C23.8,69.2,0,93,0,122.3s23.8,53.1,53.1,53.1s53.1-23.8,53.1-53.1S82.4,69.2,53.1,69.2z M53.1,143.3
		c-11.5,0-20.9-9.4-20.9-20.9s9.4-20.9,20.9-20.9S74,110.8,74,122.3S64.7,143.3,53.1,143.3z"/>
	<path class="st0" d="M291.3,338c-8.9,0-16.1-7.2-16.1-16.1V93.4c0-8.9,7.2-16.1,16.1-16.1c8.9,0,16.1,7.2,16.1,16.1v228.6
		C307.4,330.8,300.2,338,291.3,338z"/>
	<path class="st0" d="M172.2,188.3c-29.3,0-53.1,23.8-53.1,53.1s23.8,53.1,53.1,53.1s53.1-23.8,53.1-53.1S201.5,188.3,172.2,188.3z
		 M172.2,262.4c-11.5,0-20.9-9.4-20.9-20.9c0-11.5,9.4-20.9,20.9-20.9c11.5,0,20.9,9.4,20.9,20.9C193.2,253,183.8,262.4,172.2,262.4
		z"/>
	<path class="st0" d="M291.3,0c-29.3,0-53.1,23.8-53.1,53.1s23.8,53.1,53.1,53.1c29.3,0,53.1-23.8,53.1-53.1S320.6,0,291.3,0z
		 M291.3,74c-11.5,0-20.9-9.4-20.9-20.9s9.4-20.9,20.9-20.9c11.5,0,20.9,9.4,20.9,20.9S302.9,74,291.3,74z"/>
	<path class="st0" d="M172.2,188.3c5.6,0,11,0.9,16.1,2.5V25.8c0-8.9-7.2-16.1-16.1-16.1s-16.1,7.2-16.1,16.1v165.1
		C161.2,189.2,166.6,188.3,172.2,188.3z"/>
	<path class="st0" d="M172.2,294.6c-5.6,0-11-0.9-16.1-2.5v29.9c0,8.9,7.2,16.1,16.1,16.1s16.1-7.2,16.1-16.1v-29.9
		C183.2,293.7,177.8,294.6,172.2,294.6z"/>
	<path class="st0" d="M69.2,71.7v-46c0-8.9-7.2-16.1-16.1-16.1S37,16.9,37,25.8v46c5.1-1.6,10.5-2.5,16.1-2.5S64.1,70.1,69.2,71.7z"
		/>
	<path class="st0" d="M37,172.9v149c0,8.9,7.2,16.1,16.1,16.1s16.1-7.2,16.1-16.1v-149c-5.1,1.6-10.5,2.5-16.1,2.5
		S42.1,174.6,37,172.9z"/>
</g>
</svg>
