<svg id="icons" enable-background="new 0 0 64 64" height="512" viewBox="0 0 64 64" width="512" xmlns="http://www.w3.org/2000/svg"><path d="m19 44.167v2.824 3.999l-.038.002c-.552.021-.982.485-.961 1.037.021.539.464.962.998.962h.001v1.999l-.038.002c-.552.021-.982.485-.961 1.037.021.539.464.962.998.962h.001v1c0 .266.105.52.293.707l2 2c.188.188.441.293.707.293h4.26c1.301 1.869 3.441 3.018 5.74 3.018s4.439-1.148 5.74-3.018h4.259c.265 0 .52-.105.707-.293l2.001-2c.188-.187.293-.441.293-.707v-1.999l.038-.002c.552-.021.982-.485.961-1.037-.02-.539-.504-.963-.999-.955v-2.006l.038-.002c.552-.021.982-.485.961-1.037-.02-.539-.504-.973-.999-.955v-3.007-2.824c6.899-4.446 11-11.947 11-20.176 0-13.233-10.767-24-24-24s-24 10.767-24 24c0 8.229 4.101 15.73 11 20.176zm2 3.824h22v2.076l-22 .847zm11 14.018c-1.104 0-2.16-.37-3.017-1.018h6.033c-.856.648-1.912 1.018-3.016 1.018zm11-4.432-1.415 1.414h-19.171l-1.414-1.414v-.662l22-.847zm0-3.51-22 .847v-1.999l22-.847zm-11-52.076c12.131 0 22 9.869 22 22 0 7.716-3.934 14.732-10.522 18.771-.297.181-.478.505-.478.852v2.377h-22v-2.377c0-.348-.181-.671-.478-.853-6.588-4.037-10.522-11.054-10.522-18.77 0-12.131 9.869-22 22-22z"/><path d="m19.006 18.001v15.992c0 .553.447 1 1 1h23.992c.553 0 1-.447 1-1v-15.992c0-.552-.447-1-1-1h-10.665l-3.733-2.801c-.032-.024-.07-.03-.104-.05-.06-.035-.118-.065-.184-.087s-.131-.032-.198-.04c-.04-.004-.075-.023-.115-.023h-8.998c-.553 0-1 .448-1 1v2.916c0 .02.01.036.011.055 0 .01-.006.02-.006.03zm23.992 14.992h-21.992v-13.992h21.992zm-21.997-15.992v-1.001h7.664l1.335 1.001z"/></svg>