<?xml version="1.0" encoding="utf-8"?>
<!-- Generator: Adobe Illustrator 25.0.0, SVG Export Plug-In . SVG Version: 6.00 Build 0)  -->
<svg version="1.1" id="Capa_1" xmlns="http://www.w3.org/2000/svg" xmlns:xlink="http://www.w3.org/1999/xlink" x="0px" y="0px"
	 viewBox="0 0 248.1 228.8" style="enable-background:new 0 0 248.1 228.8;" xml:space="preserve">
<g>
	<path d="M230.6,52.9h-27.8V7.5c0-4.1-3.4-7.5-7.5-7.5H52.8c-4.1,0-7.5,3.4-7.5,7.5v45.4H17.5C7.9,52.9,0,60.7,0,70.4v96.2
		c0,9.6,7.9,17.5,17.5,17.5h27.8v37.2c0,4.1,3.4,7.5,7.5,7.5h142.5c4.1,0,7.5-3.4,7.5-7.5v-37.2h27.8c9.6,0,17.5-7.9,17.5-17.5V70.4
		C248.1,60.7,240.2,52.9,230.6,52.9z M60.3,15h127.5v37.9H60.3V15z M187.8,213.8H60.3v-74.4h127.5V213.8z M233.1,166.6
		c0,1.4-1.1,2.5-2.5,2.5h-27.8v-37.2c0-4.1-3.4-7.5-7.5-7.5H52.8c-4.1,0-7.5,3.4-7.5,7.5v37.2H17.5c-1.4,0-2.5-1.1-2.5-2.5V70.4
		c0-1.4,1.1-2.5,2.5-2.5h35.3h142.5h35.3c1.4,0,2.5,1.1,2.5,2.5L233.1,166.6L233.1,166.6z"/>
	<circle cx="195.3" cy="96.1" r="10.7"/>
	<path d="M158.2,154.2H89.9c-4.1,0-7.5,3.4-7.5,7.5s3.4,7.5,7.5,7.5h68.2c4.1,0,7.5-3.4,7.5-7.5
		C165.7,157.5,162.3,154.2,158.2,154.2z"/>
	<path d="M158.2,184H89.9c-4.1,0-7.5,3.4-7.5,7.5s3.4,7.5,7.5,7.5h68.2c4.1,0,7.5-3.4,7.5-7.5S162.3,184,158.2,184z"/>
</g>
</svg>
